<svg xmlns="http://www.w3.org/2000/svg" xmlns:xlink="http://www.w3.org/1999/xlink" width="500" zoomAndPan="magnify" viewBox="0 0 375 374.999991" height="500" preserveAspectRatio="xMidYMid meet" version="1.0"><defs><g/><clipPath id="84eb563224"><path d="M 138.964844 108.992188 L 235.714844 108.992188 L 235.714844 205.742188 L 138.964844 205.742188 Z M 138.964844 108.992188 " clip-rule="nonzero"/></clipPath></defs><g clip-path="url(#84eb563224)"><path fill="#ffffff" d="M 233.449219 192.574219 L 202.257812 161.382812 C 205.558594 156.117188 207.496094 149.917969 207.496094 143.257812 C 207.496094 124.363281 192.128906 108.992188 173.230469 108.992188 C 154.332031 108.992188 138.964844 124.363281 138.964844 143.257812 C 138.964844 162.152344 154.335938 177.523438 173.230469 177.523438 C 179.886719 177.523438 186.082031 175.582031 191.347656 172.289062 L 222.542969 203.480469 C 223.980469 204.914062 225.964844 205.742188 228 205.742188 C 232.261719 205.742188 235.714844 202.277344 235.714844 198.035156 C 235.714844 196.003906 234.886719 194.015625 233.449219 192.574219 Z M 142.996094 143.257812 C 142.996094 126.582031 156.5625 113.023438 173.230469 113.023438 C 189.902344 113.023438 203.464844 126.582031 203.464844 143.257812 C 203.464844 159.929688 189.90625 173.492188 173.230469 173.492188 C 156.558594 173.492188 142.996094 159.929688 142.996094 143.257812 Z M 228 201.714844 C 227.027344 201.714844 226.082031 201.320312 225.398438 200.632812 L 194.695312 169.933594 C 196.613281 168.386719 198.359375 166.640625 199.902344 164.722656 L 230.605469 195.421875 C 231.285156 196.109375 231.683594 197.0625 231.683594 198.03125 C 231.683594 200.0625 230.027344 201.714844 228 201.714844 Z M 228 201.714844 " fill-opacity="1" fill-rule="nonzero"/></g><path fill="#ffffff" d="M 155.503906 143.253906 L 162.820312 132.277344 C 163.4375 131.347656 163.183594 130.097656 162.257812 129.480469 C 161.339844 128.875 160.085938 129.113281 159.460938 130.042969 L 151.398438 142.136719 C 150.949219 142.8125 150.949219 143.695312 151.398438 144.375 L 159.460938 156.46875 C 159.855469 157.050781 160.488281 157.367188 161.136719 157.367188 C 161.527344 157.367188 161.914062 157.257812 162.253906 157.023438 C 163.183594 156.40625 163.433594 155.15625 162.816406 154.230469 Z M 155.503906 143.253906 " fill-opacity="1" fill-rule="nonzero"/><path fill="#ffffff" d="M 177.753906 125.175781 C 176.667969 124.894531 175.578125 125.558594 175.3125 126.644531 L 167.25 158.894531 C 166.980469 159.976562 167.632812 161.066406 168.71875 161.335938 C 168.878906 161.378906 169.042969 161.398438 169.199219 161.398438 C 170.109375 161.398438 170.929688 160.789062 171.15625 159.871094 L 179.21875 127.621094 C 179.488281 126.539062 178.839844 125.445312 177.753906 125.175781 Z M 177.753906 125.175781 " fill-opacity="1" fill-rule="nonzero"/><path fill="#ffffff" d="M 195.070312 142.140625 L 187.007812 130.046875 C 186.386719 129.117188 185.128906 128.875 184.214844 129.488281 C 183.285156 130.101562 183.035156 131.351562 183.652344 132.28125 L 190.964844 143.257812 L 183.648438 154.234375 C 183.03125 155.160156 183.285156 156.410156 184.210938 157.027344 C 184.550781 157.257812 184.9375 157.367188 185.324219 157.367188 C 185.976562 157.367188 186.613281 157.050781 187.003906 156.472656 L 195.066406 144.378906 C 195.519531 143.699219 195.519531 142.816406 195.070312 142.140625 Z M 195.070312 142.140625 " fill-opacity="1" fill-rule="nonzero"/><g fill="#ffffff" fill-opacity="1"><g transform="translate(103.124998, 238.558417)"><g><path d="M 12.25 -24.890625 L 17.375 -24.890625 L 17.375 -7.65625 C 17.375 -6.070312 17.023438 -4.671875 16.328125 -3.453125 C 15.628906 -2.242188 14.640625 -1.304688 13.359375 -0.640625 C 12.085938 0.015625 10.648438 0.34375 9.046875 0.34375 C 6.410156 0.34375 4.359375 -0.320312 2.890625 -1.65625 C 1.421875 -3 0.6875 -4.894531 0.6875 -7.34375 L 5.84375 -7.34375 C 5.84375 -6.125 6.097656 -5.222656 6.609375 -4.640625 C 7.128906 -4.066406 7.941406 -3.78125 9.046875 -3.78125 C 10.023438 -3.78125 10.800781 -4.113281 11.375 -4.78125 C 11.957031 -5.457031 12.25 -6.414062 12.25 -7.65625 Z M 12.25 -24.890625 "/></g></g></g><g fill="#ffffff" fill-opacity="1"><g transform="translate(122.671414, 238.558417)"><g><path d="M 1.125 -9.421875 C 1.125 -11.253906 1.476562 -12.882812 2.1875 -14.3125 C 2.894531 -15.75 3.910156 -16.859375 5.234375 -17.640625 C 6.566406 -18.429688 8.109375 -18.828125 9.859375 -18.828125 C 12.359375 -18.828125 14.394531 -18.0625 15.96875 -16.53125 C 17.550781 -15.007812 18.429688 -12.941406 18.609375 -10.328125 L 18.640625 -9.0625 C 18.640625 -6.21875 17.847656 -3.9375 16.265625 -2.21875 C 14.679688 -0.507812 12.554688 0.34375 9.890625 0.34375 C 7.222656 0.34375 5.09375 -0.507812 3.5 -2.21875 C 1.914062 -3.925781 1.125 -6.25 1.125 -9.1875 Z M 6.0625 -9.0625 C 6.0625 -7.300781 6.390625 -5.957031 7.046875 -5.03125 C 7.710938 -4.101562 8.660156 -3.640625 9.890625 -3.640625 C 11.085938 -3.640625 12.019531 -4.097656 12.6875 -5.015625 C 13.363281 -5.929688 13.703125 -7.398438 13.703125 -9.421875 C 13.703125 -11.140625 13.363281 -12.46875 12.6875 -13.40625 C 12.019531 -14.351562 11.078125 -14.828125 9.859375 -14.828125 C 8.648438 -14.828125 7.710938 -14.359375 7.046875 -13.421875 C 6.390625 -12.484375 6.0625 -11.03125 6.0625 -9.0625 Z M 6.0625 -9.0625 "/></g></g></g><g fill="#ffffff" fill-opacity="1"><g transform="translate(142.457034, 238.558417)"><g><path d="M 18.5625 -9.078125 C 18.5625 -6.109375 17.925781 -3.796875 16.65625 -2.140625 C 15.394531 -0.484375 13.628906 0.34375 11.359375 0.34375 C 9.359375 0.34375 7.757812 -0.425781 6.5625 -1.96875 L 6.34375 0 L 1.890625 0 L 1.890625 -26.25 L 6.84375 -26.25 L 6.84375 -16.828125 C 7.976562 -18.160156 9.472656 -18.828125 11.328125 -18.828125 C 13.585938 -18.828125 15.359375 -18 16.640625 -16.34375 C 17.921875 -14.6875 18.5625 -12.351562 18.5625 -9.34375 Z M 13.625 -9.4375 C 13.625 -11.300781 13.328125 -12.660156 12.734375 -13.515625 C 12.140625 -14.378906 11.253906 -14.8125 10.078125 -14.8125 C 8.503906 -14.8125 7.425781 -14.171875 6.84375 -12.890625 L 6.84375 -5.59375 C 7.4375 -4.289062 8.53125 -3.640625 10.125 -3.640625 C 11.71875 -3.640625 12.765625 -4.425781 13.265625 -6 C 13.503906 -6.75 13.625 -7.894531 13.625 -9.4375 Z M 13.625 -9.4375 "/></g></g></g><g fill="#ffffff" fill-opacity="1"><g transform="translate(162.157225, 238.558417)"><g><path d="M 15.125 -6.53125 C 15.125 -7.5 14.78125 -8.238281 14.09375 -8.75 C 13.414062 -9.269531 12.1875 -9.816406 10.40625 -10.390625 C 8.625 -10.972656 7.21875 -11.539062 6.1875 -12.09375 C 3.363281 -13.625 1.953125 -15.679688 1.953125 -18.265625 C 1.953125 -19.609375 2.328125 -20.804688 3.078125 -21.859375 C 3.835938 -22.921875 4.925781 -23.742188 6.34375 -24.328125 C 7.769531 -24.921875 9.363281 -25.21875 11.125 -25.21875 C 12.90625 -25.21875 14.488281 -24.894531 15.875 -24.25 C 17.269531 -23.613281 18.347656 -22.707031 19.109375 -21.53125 C 19.878906 -20.351562 20.265625 -19.019531 20.265625 -17.53125 L 15.140625 -17.53125 C 15.140625 -18.675781 14.78125 -19.5625 14.0625 -20.1875 C 13.34375 -20.820312 12.335938 -21.140625 11.046875 -21.140625 C 9.785156 -21.140625 8.804688 -20.875 8.109375 -20.34375 C 7.421875 -19.8125 7.078125 -19.113281 7.078125 -18.25 C 7.078125 -17.4375 7.484375 -16.753906 8.296875 -16.203125 C 9.109375 -15.660156 10.304688 -15.15625 11.890625 -14.6875 C 14.804688 -13.800781 16.929688 -12.707031 18.265625 -11.40625 C 19.597656 -10.113281 20.265625 -8.5 20.265625 -6.5625 C 20.265625 -4.40625 19.445312 -2.710938 17.8125 -1.484375 C 16.1875 -0.265625 14 0.34375 11.25 0.34375 C 9.332031 0.34375 7.585938 -0.00390625 6.015625 -0.703125 C 4.441406 -1.410156 3.238281 -2.375 2.40625 -3.59375 C 1.582031 -4.8125 1.171875 -6.222656 1.171875 -7.828125 L 6.328125 -7.828125 C 6.328125 -5.078125 7.96875 -3.703125 11.25 -3.703125 C 12.46875 -3.703125 13.414062 -3.953125 14.09375 -4.453125 C 14.78125 -4.953125 15.125 -5.644531 15.125 -6.53125 Z M 15.125 -6.53125 "/></g></g></g><g fill="#ffffff" fill-opacity="1"><g transform="translate(183.668533, 238.558417)"><g><path d="M 10.40625 0.34375 C 7.695312 0.34375 5.488281 -0.488281 3.78125 -2.15625 C 2.082031 -3.820312 1.234375 -6.035156 1.234375 -8.796875 L 1.234375 -9.28125 C 1.234375 -11.132812 1.59375 -12.789062 2.3125 -14.25 C 3.03125 -15.71875 4.046875 -16.847656 5.359375 -17.640625 C 6.671875 -18.429688 8.171875 -18.828125 9.859375 -18.828125 C 12.390625 -18.828125 14.378906 -18.03125 15.828125 -16.4375 C 17.285156 -14.84375 18.015625 -12.582031 18.015625 -9.65625 L 18.015625 -7.640625 L 6.234375 -7.640625 C 6.398438 -6.429688 6.882812 -5.460938 7.6875 -4.734375 C 8.488281 -4.003906 9.503906 -3.640625 10.734375 -3.640625 C 12.640625 -3.640625 14.125 -4.328125 15.1875 -5.703125 L 17.625 -2.984375 C 16.882812 -1.941406 15.878906 -1.125 14.609375 -0.53125 C 13.347656 0.0507812 11.945312 0.34375 10.40625 0.34375 Z M 9.84375 -14.828125 C 8.863281 -14.828125 8.066406 -14.5 7.453125 -13.84375 C 6.847656 -13.1875 6.460938 -12.238281 6.296875 -11 L 13.15625 -11 L 13.15625 -11.40625 C 13.132812 -12.5 12.835938 -13.34375 12.265625 -13.9375 C 11.703125 -14.53125 10.894531 -14.828125 9.84375 -14.828125 Z M 9.84375 -14.828125 "/></g></g></g><g fill="#ffffff" fill-opacity="1"><g transform="translate(202.582766, 238.558417)"><g><path d="M 10.40625 0.34375 C 7.695312 0.34375 5.488281 -0.488281 3.78125 -2.15625 C 2.082031 -3.820312 1.234375 -6.035156 1.234375 -8.796875 L 1.234375 -9.28125 C 1.234375 -11.132812 1.59375 -12.789062 2.3125 -14.25 C 3.03125 -15.71875 4.046875 -16.847656 5.359375 -17.640625 C 6.671875 -18.429688 8.171875 -18.828125 9.859375 -18.828125 C 12.390625 -18.828125 14.378906 -18.03125 15.828125 -16.4375 C 17.285156 -14.84375 18.015625 -12.582031 18.015625 -9.65625 L 18.015625 -7.640625 L 6.234375 -7.640625 C 6.398438 -6.429688 6.882812 -5.460938 7.6875 -4.734375 C 8.488281 -4.003906 9.503906 -3.640625 10.734375 -3.640625 C 12.640625 -3.640625 14.125 -4.328125 15.1875 -5.703125 L 17.625 -2.984375 C 16.882812 -1.941406 15.878906 -1.125 14.609375 -0.53125 C 13.347656 0.0507812 11.945312 0.34375 10.40625 0.34375 Z M 9.84375 -14.828125 C 8.863281 -14.828125 8.066406 -14.5 7.453125 -13.84375 C 6.847656 -13.1875 6.460938 -12.238281 6.296875 -11 L 13.15625 -11 L 13.15625 -11.40625 C 13.132812 -12.5 12.835938 -13.34375 12.265625 -13.9375 C 11.703125 -14.53125 10.894531 -14.828125 9.84375 -14.828125 Z M 9.84375 -14.828125 "/></g></g></g><g fill="#ffffff" fill-opacity="1"><g transform="translate(221.496999, 238.558417)"><g><path d="M 8.609375 -7.421875 L 6.84375 -5.640625 L 6.84375 0 L 1.890625 0 L 1.890625 -26.25 L 6.84375 -26.25 L 6.84375 -11.703125 L 7.796875 -12.9375 L 12.53125 -18.484375 L 18.453125 -18.484375 L 11.78125 -10.78125 L 19.03125 0 L 13.359375 0 Z M 8.609375 -7.421875 "/></g></g></g><g fill="#ffffff" fill-opacity="1"><g transform="translate(240.189114, 238.558417)"><g><path d="M 10.40625 0.34375 C 7.695312 0.34375 5.488281 -0.488281 3.78125 -2.15625 C 2.082031 -3.820312 1.234375 -6.035156 1.234375 -8.796875 L 1.234375 -9.28125 C 1.234375 -11.132812 1.59375 -12.789062 2.3125 -14.25 C 3.03125 -15.71875 4.046875 -16.847656 5.359375 -17.640625 C 6.671875 -18.429688 8.171875 -18.828125 9.859375 -18.828125 C 12.390625 -18.828125 14.378906 -18.03125 15.828125 -16.4375 C 17.285156 -14.84375 18.015625 -12.582031 18.015625 -9.65625 L 18.015625 -7.640625 L 6.234375 -7.640625 C 6.398438 -6.429688 6.882812 -5.460938 7.6875 -4.734375 C 8.488281 -4.003906 9.503906 -3.640625 10.734375 -3.640625 C 12.640625 -3.640625 14.125 -4.328125 15.1875 -5.703125 L 17.625 -2.984375 C 16.882812 -1.941406 15.878906 -1.125 14.609375 -0.53125 C 13.347656 0.0507812 11.945312 0.34375 10.40625 0.34375 Z M 9.84375 -14.828125 C 8.863281 -14.828125 8.066406 -14.5 7.453125 -13.84375 C 6.847656 -13.1875 6.460938 -12.238281 6.296875 -11 L 13.15625 -11 L 13.15625 -11.40625 C 13.132812 -12.5 12.835938 -13.34375 12.265625 -13.9375 C 11.703125 -14.53125 10.894531 -14.828125 9.84375 -14.828125 Z M 9.84375 -14.828125 "/></g></g></g><g fill="#ffffff" fill-opacity="1"><g transform="translate(259.103347, 238.558417)"><g><path d="M 12.28125 -13.859375 C 11.613281 -13.953125 11.023438 -14 10.515625 -14 C 8.640625 -14 7.414062 -13.363281 6.84375 -12.09375 L 6.84375 0 L 1.890625 0 L 1.890625 -18.484375 L 6.5625 -18.484375 L 6.703125 -16.28125 C 7.691406 -17.976562 9.0625 -18.828125 10.8125 -18.828125 C 11.363281 -18.828125 11.878906 -18.753906 12.359375 -18.609375 Z M 12.28125 -13.859375 "/></g></g></g></svg>