<svg xmlns="http://www.w3.org/2000/svg" xmlns:xlink="http://www.w3.org/1999/xlink" width="500" zoomAndPan="magnify" viewBox="0 0 375 374.999991" height="500" preserveAspectRatio="xMidYMid meet" version="1.0"><defs><g/><clipPath id="563cd8871c"><path d="M 59.40625 37.5 L 307.65625 37.5 L 307.65625 285.75 L 59.40625 285.75 Z M 59.40625 37.5 " clip-rule="nonzero"/></clipPath></defs><g clip-path="url(#563cd8871c)"><path fill="#1d4ed8" d="M 301.84375 251.96875 L 221.804688 171.925781 C 230.273438 158.417969 235.25 142.507812 235.25 125.421875 C 235.25 76.941406 195.820312 37.5 147.328125 37.5 C 98.835938 37.5 59.40625 76.941406 59.40625 125.421875 C 59.40625 173.902344 98.847656 213.34375 147.328125 213.34375 C 164.40625 213.34375 180.304688 208.367188 193.8125 199.917969 L 273.851562 279.945312 C 277.546875 283.628906 282.632812 285.75 287.859375 285.75 C 298.792969 285.75 307.65625 276.863281 307.65625 265.972656 C 307.65625 260.757812 305.527344 255.660156 301.84375 251.96875 Z M 69.75 125.421875 C 69.75 82.640625 104.558594 47.84375 147.328125 47.84375 C 190.097656 47.84375 224.90625 82.640625 224.90625 125.421875 C 224.90625 168.203125 190.109375 203 147.328125 203 C 104.546875 203 69.75 168.203125 69.75 125.421875 Z M 287.859375 275.417969 C 285.367188 275.417969 282.933594 274.402344 281.175781 272.644531 L 202.398438 193.867188 C 207.320312 189.90625 211.800781 185.425781 215.761719 180.503906 L 294.539062 259.269531 C 296.289062 261.039062 297.3125 263.480469 297.3125 265.960938 C 297.3125 271.175781 293.0625 275.417969 287.859375 275.417969 Z M 287.859375 275.417969 " fill-opacity="1" fill-rule="nonzero"/></g><path fill="#1d4ed8" d="M 101.835938 125.410156 L 120.609375 97.246094 C 122.191406 94.867188 121.542969 91.660156 119.171875 90.078125 C 116.8125 88.515625 113.597656 89.125 111.992188 91.515625 L 91.304688 122.546875 C 90.148438 124.285156 90.148438 126.550781 91.304688 128.285156 L 111.992188 159.316406 C 113.007812 160.816406 114.632812 161.625 116.296875 161.625 C 117.289062 161.625 118.28125 161.34375 119.164062 160.746094 C 121.542969 159.164062 122.183594 155.957031 120.601562 153.578125 Z M 101.835938 125.410156 " fill-opacity="1" fill-rule="nonzero"/><path fill="#1d4ed8" d="M 158.933594 79.03125 C 156.140625 78.304688 153.347656 80.011719 152.664062 82.796875 L 131.976562 165.546875 C 131.285156 168.316406 132.960938 171.121094 135.742188 171.8125 C 136.15625 171.917969 136.582031 171.96875 136.984375 171.96875 C 139.3125 171.96875 141.421875 170.40625 142 168.046875 L 162.6875 85.296875 C 163.382812 82.527344 161.714844 79.722656 158.933594 79.03125 Z M 158.933594 79.03125 " fill-opacity="1" fill-rule="nonzero"/><path fill="#1d4ed8" d="M 203.359375 122.558594 L 182.671875 91.527344 C 181.078125 89.136719 177.851562 88.515625 175.503906 90.085938 C 173.125 91.671875 172.484375 94.875 174.066406 97.253906 L 192.832031 125.421875 L 174.054688 153.585938 C 172.472656 155.96875 173.125 159.171875 175.496094 160.757812 C 176.375 161.34375 177.367188 161.625 178.359375 161.625 C 180.023438 161.625 181.660156 160.816406 182.664062 159.328125 L 203.351562 128.296875 C 204.519531 126.558594 204.519531 124.292969 203.359375 122.558594 Z M 203.359375 122.558594 " fill-opacity="1" fill-rule="nonzero"/><g fill="#1d4ed8" fill-opacity="1"><g transform="translate(38.765627, 349.016814)"><g><path d="M 13.796875 0.578125 C 11.597656 0.578125 9.550781 0.125 7.65625 -0.78125 C 5.757812 -1.6875 4.210938 -2.953125 3.015625 -4.578125 C 2.546875 -5.273438 2.3125 -5.953125 2.3125 -6.609375 C 2.3125 -7.535156 2.679688 -8.335938 3.421875 -9.015625 C 4.160156 -9.691406 4.914062 -10.03125 5.6875 -10.03125 C 6.6875 -10.03125 7.769531 -9.453125 8.9375 -8.296875 C 9.664062 -7.597656 10.414062 -7.101562 11.1875 -6.8125 C 11.96875 -6.519531 12.835938 -6.375 13.796875 -6.375 C 14.921875 -6.375 15.992188 -6.664062 17.015625 -7.25 C 18.046875 -7.832031 18.867188 -8.613281 19.484375 -9.59375 C 20.109375 -10.582031 20.421875 -11.617188 20.421875 -12.703125 L 20.421875 -37.0625 C 20.421875 -38.0625 20.785156 -38.898438 21.515625 -39.578125 C 22.253906 -40.253906 23.101562 -40.59375 24.0625 -40.59375 C 25.144531 -40.59375 26.015625 -40.265625 26.671875 -39.609375 C 27.335938 -38.953125 27.671875 -38.101562 27.671875 -37.0625 L 27.671875 -12.703125 C 27.671875 -10.378906 27.050781 -8.191406 25.8125 -6.140625 C 24.570312 -4.097656 22.890625 -2.46875 20.765625 -1.25 C 18.640625 -0.03125 16.316406 0.578125 13.796875 0.578125 Z M 13.796875 0.578125 "/></g></g></g><g fill="#1d4ed8" fill-opacity="1"><g transform="translate(70.779499, 349.016814)"><g><path d="M 33.578125 -15.484375 C 33.578125 -12.390625 32.878906 -9.613281 31.484375 -7.15625 C 30.097656 -4.707031 28.195312 -2.804688 25.78125 -1.453125 C 23.363281 -0.0976562 20.707031 0.578125 17.8125 0.578125 C 14.863281 0.578125 12.191406 -0.0976562 9.796875 -1.453125 C 7.398438 -2.804688 5.503906 -4.707031 4.109375 -7.15625 C 2.722656 -9.613281 2.03125 -12.390625 2.03125 -15.484375 C 2.03125 -18.578125 2.722656 -21.347656 4.109375 -23.796875 C 5.503906 -26.253906 7.398438 -28.171875 9.796875 -29.546875 C 12.191406 -30.921875 14.863281 -31.609375 17.8125 -31.609375 C 20.707031 -31.609375 23.363281 -30.921875 25.78125 -29.546875 C 28.195312 -28.171875 30.097656 -26.253906 31.484375 -23.796875 C 32.878906 -21.347656 33.578125 -18.578125 33.578125 -15.484375 Z M 26.625 -15.484375 C 26.625 -17.378906 26.226562 -19.070312 25.4375 -20.5625 C 24.644531 -22.050781 23.578125 -23.203125 22.234375 -24.015625 C 20.898438 -24.828125 19.425781 -25.234375 17.8125 -25.234375 C 16.1875 -25.234375 14.707031 -24.828125 13.375 -24.015625 C 12.039062 -23.203125 10.972656 -22.050781 10.171875 -20.5625 C 9.378906 -19.070312 8.984375 -17.378906 8.984375 -15.484375 C 8.984375 -13.585938 9.378906 -11.90625 10.171875 -10.4375 C 10.972656 -8.96875 12.039062 -7.828125 13.375 -7.015625 C 14.707031 -6.203125 16.1875 -5.796875 17.8125 -5.796875 C 19.425781 -5.796875 20.898438 -6.203125 22.234375 -7.015625 C 23.578125 -7.828125 24.644531 -8.96875 25.4375 -10.4375 C 26.226562 -11.90625 26.625 -13.585938 26.625 -15.484375 Z M 26.625 -15.484375 "/></g></g></g><g fill="#1d4ed8" fill-opacity="1"><g transform="translate(106.389139, 349.016814)"><g><path d="M 19.84375 -31.609375 C 22.507812 -31.609375 24.921875 -30.921875 27.078125 -29.546875 C 29.242188 -28.171875 30.957031 -26.265625 32.21875 -23.828125 C 33.476562 -21.398438 34.109375 -18.640625 34.109375 -15.546875 C 34.109375 -12.453125 33.488281 -9.675781 32.25 -7.21875 C 31.007812 -4.757812 29.316406 -2.84375 27.171875 -1.46875 C 25.023438 -0.101562 22.65625 0.578125 20.0625 0.578125 C 18.207031 0.578125 16.457031 0.203125 14.8125 -0.546875 C 13.175781 -1.304688 11.816406 -2.226562 10.734375 -3.3125 L 10.734375 -2.953125 C 10.734375 -1.953125 10.40625 -1.113281 9.75 -0.4375 C 9.09375 0.238281 8.257812 0.578125 7.25 0.578125 C 6.238281 0.578125 5.40625 0.25 4.75 -0.40625 C 4.09375 -1.0625 3.765625 -1.910156 3.765625 -2.953125 L 3.765625 -39.375 C 3.765625 -40.382812 4.09375 -41.226562 4.75 -41.90625 C 5.40625 -42.582031 6.238281 -42.921875 7.25 -42.921875 C 8.257812 -42.921875 9.09375 -42.582031 9.75 -41.90625 C 10.40625 -41.226562 10.734375 -40.382812 10.734375 -39.375 L 10.734375 -27.265625 C 11.660156 -28.421875 12.953125 -29.429688 14.609375 -30.296875 C 16.273438 -31.171875 18.019531 -31.609375 19.84375 -31.609375 Z M 18.96875 -5.796875 C 21.4375 -5.796875 23.460938 -6.722656 25.046875 -8.578125 C 26.640625 -10.441406 27.4375 -12.765625 27.4375 -15.546875 C 27.4375 -18.328125 26.648438 -20.632812 25.078125 -22.46875 C 23.515625 -24.3125 21.476562 -25.234375 18.96875 -25.234375 C 16.457031 -25.234375 14.40625 -24.3125 12.8125 -22.46875 C 11.226562 -20.632812 10.4375 -18.328125 10.4375 -15.546875 C 10.4375 -12.765625 11.226562 -10.441406 12.8125 -8.578125 C 14.40625 -6.722656 16.457031 -5.796875 18.96875 -5.796875 Z M 18.96875 -5.796875 "/></g></g></g><g fill="#1d4ed8" fill-opacity="1"><g transform="translate(142.520743, 349.016814)"><g><path d="M 17.40625 0.578125 C 14.613281 0.578125 12.132812 0.226562 9.96875 -0.46875 C 7.8125 -1.164062 5.785156 -2.34375 3.890625 -4 C 2.835938 -4.925781 2.3125 -5.953125 2.3125 -7.078125 C 2.3125 -7.960938 2.640625 -8.742188 3.296875 -9.421875 C 3.960938 -10.097656 4.757812 -10.4375 5.6875 -10.4375 C 6.414062 -10.4375 7.070312 -10.207031 7.65625 -9.75 C 9.195312 -8.46875 10.703125 -7.535156 12.171875 -6.953125 C 13.648438 -6.378906 15.394531 -6.09375 17.40625 -6.09375 C 19.5625 -6.09375 21.421875 -6.570312 22.984375 -7.53125 C 24.554688 -8.5 25.34375 -9.703125 25.34375 -11.140625 C 25.34375 -12.878906 24.566406 -14.238281 23.015625 -15.21875 C 21.472656 -16.207031 19.019531 -16.953125 15.65625 -17.453125 C 7.1875 -18.691406 2.953125 -22.640625 2.953125 -29.296875 C 2.953125 -31.722656 3.585938 -33.835938 4.859375 -35.640625 C 6.140625 -37.441406 7.878906 -38.816406 10.078125 -39.765625 C 12.285156 -40.710938 14.742188 -41.1875 17.453125 -41.1875 C 19.890625 -41.1875 22.179688 -40.816406 24.328125 -40.078125 C 26.472656 -39.335938 28.265625 -38.367188 29.703125 -37.171875 C 30.816406 -36.285156 31.375 -35.265625 31.375 -34.109375 C 31.375 -33.210938 31.046875 -32.425781 30.390625 -31.75 C 29.734375 -31.070312 28.960938 -30.734375 28.078125 -30.734375 C 27.492188 -30.734375 26.96875 -30.910156 26.5 -31.265625 C 25.5 -32.078125 24.097656 -32.820312 22.296875 -33.5 C 20.503906 -34.175781 18.890625 -34.515625 17.453125 -34.515625 C 15.015625 -34.515625 13.128906 -34.054688 11.796875 -33.140625 C 10.460938 -32.234375 9.796875 -31.046875 9.796875 -29.578125 C 9.796875 -27.921875 10.484375 -26.664062 11.859375 -25.8125 C 13.234375 -24.957031 15.390625 -24.257812 18.328125 -23.71875 C 21.648438 -23.144531 24.304688 -22.398438 26.296875 -21.484375 C 28.296875 -20.578125 29.796875 -19.335938 30.796875 -17.765625 C 31.804688 -16.203125 32.3125 -14.128906 32.3125 -11.546875 C 32.3125 -9.109375 31.625 -6.96875 30.25 -5.125 C 28.875 -3.289062 27.046875 -1.878906 24.765625 -0.890625 C 22.484375 0.0859375 20.03125 0.578125 17.40625 0.578125 Z M 17.40625 0.578125 "/></g></g></g><g fill="#1d4ed8" fill-opacity="1"><g transform="translate(177.14444, 349.016814)"><g><path d="M 31.609375 -16.234375 C 31.566406 -15.304688 31.195312 -14.550781 30.5 -13.96875 C 29.8125 -13.394531 29.003906 -13.109375 28.078125 -13.109375 L 8.9375 -13.109375 C 9.394531 -10.828125 10.453125 -9.035156 12.109375 -7.734375 C 13.773438 -6.441406 15.65625 -5.796875 17.75 -5.796875 C 19.332031 -5.796875 20.566406 -5.941406 21.453125 -6.234375 C 22.347656 -6.523438 23.054688 -6.832031 23.578125 -7.15625 C 24.097656 -7.488281 24.457031 -7.710938 24.65625 -7.828125 C 25.34375 -8.179688 26 -8.359375 26.625 -8.359375 C 27.4375 -8.359375 28.128906 -8.066406 28.703125 -7.484375 C 29.285156 -6.898438 29.578125 -6.222656 29.578125 -5.453125 C 29.578125 -4.410156 29.035156 -3.460938 27.953125 -2.609375 C 26.867188 -1.722656 25.414062 -0.96875 23.59375 -0.34375 C 21.78125 0.269531 19.945312 0.578125 18.09375 0.578125 C 14.84375 0.578125 12.007812 -0.0976562 9.59375 -1.453125 C 7.175781 -2.804688 5.3125 -4.671875 4 -7.046875 C 2.6875 -9.421875 2.03125 -12.097656 2.03125 -15.078125 C 2.03125 -18.398438 2.722656 -21.316406 4.109375 -23.828125 C 5.503906 -26.347656 7.34375 -28.273438 9.625 -29.609375 C 11.90625 -30.941406 14.34375 -31.609375 16.9375 -31.609375 C 19.488281 -31.609375 21.894531 -30.910156 24.15625 -29.515625 C 26.414062 -28.128906 28.222656 -26.253906 29.578125 -23.890625 C 30.929688 -21.535156 31.609375 -18.984375 31.609375 -16.234375 Z M 16.9375 -25.234375 C 12.445312 -25.234375 9.796875 -23.125 8.984375 -18.90625 L 24.1875 -18.90625 L 24.1875 -19.3125 C 24.03125 -20.9375 23.234375 -22.328125 21.796875 -23.484375 C 20.367188 -24.648438 18.75 -25.234375 16.9375 -25.234375 Z M 16.9375 -25.234375 "/></g></g></g><g fill="#1d4ed8" fill-opacity="1"><g transform="translate(210.782205, 349.016814)"><g><path d="M 31.609375 -16.234375 C 31.566406 -15.304688 31.195312 -14.550781 30.5 -13.96875 C 29.8125 -13.394531 29.003906 -13.109375 28.078125 -13.109375 L 8.9375 -13.109375 C 9.394531 -10.828125 10.453125 -9.035156 12.109375 -7.734375 C 13.773438 -6.441406 15.65625 -5.796875 17.75 -5.796875 C 19.332031 -5.796875 20.566406 -5.941406 21.453125 -6.234375 C 22.347656 -6.523438 23.054688 -6.832031 23.578125 -7.15625 C 24.097656 -7.488281 24.457031 -7.710938 24.65625 -7.828125 C 25.34375 -8.179688 26 -8.359375 26.625 -8.359375 C 27.4375 -8.359375 28.128906 -8.066406 28.703125 -7.484375 C 29.285156 -6.898438 29.578125 -6.222656 29.578125 -5.453125 C 29.578125 -4.410156 29.035156 -3.460938 27.953125 -2.609375 C 26.867188 -1.722656 25.414062 -0.96875 23.59375 -0.34375 C 21.78125 0.269531 19.945312 0.578125 18.09375 0.578125 C 14.84375 0.578125 12.007812 -0.0976562 9.59375 -1.453125 C 7.175781 -2.804688 5.3125 -4.671875 4 -7.046875 C 2.6875 -9.421875 2.03125 -12.097656 2.03125 -15.078125 C 2.03125 -18.398438 2.722656 -21.316406 4.109375 -23.828125 C 5.503906 -26.347656 7.34375 -28.273438 9.625 -29.609375 C 11.90625 -30.941406 14.34375 -31.609375 16.9375 -31.609375 C 19.488281 -31.609375 21.894531 -30.910156 24.15625 -29.515625 C 26.414062 -28.128906 28.222656 -26.253906 29.578125 -23.890625 C 30.929688 -21.535156 31.609375 -18.984375 31.609375 -16.234375 Z M 16.9375 -25.234375 C 12.445312 -25.234375 9.796875 -23.125 8.984375 -18.90625 L 24.1875 -18.90625 L 24.1875 -19.3125 C 24.03125 -20.9375 23.234375 -22.328125 21.796875 -23.484375 C 20.367188 -24.648438 18.75 -25.234375 16.9375 -25.234375 Z M 16.9375 -25.234375 "/></g></g></g><g fill="#1d4ed8" fill-opacity="1"><g transform="translate(244.419971, 349.016814)"><g><path d="M 29.578125 -6.09375 C 30.316406 -5.320312 30.6875 -4.453125 30.6875 -3.484375 C 30.6875 -2.515625 30.304688 -1.703125 29.546875 -1.046875 C 28.796875 -0.390625 27.992188 -0.0625 27.140625 -0.0625 C 26.140625 -0.0625 25.289062 -0.445312 24.59375 -1.21875 L 14.15625 -12.234375 L 11.3125 -9.625 L 11.3125 -3.53125 C 11.3125 -2.53125 10.984375 -1.691406 10.328125 -1.015625 C 9.671875 -0.335938 8.835938 0 7.828125 0 C 6.828125 0 5.992188 -0.335938 5.328125 -1.015625 C 4.671875 -1.691406 4.34375 -2.53125 4.34375 -3.53125 L 4.34375 -39.375 C 4.34375 -40.382812 4.671875 -41.226562 5.328125 -41.90625 C 5.992188 -42.582031 6.828125 -42.921875 7.828125 -42.921875 C 8.835938 -42.921875 9.671875 -42.582031 10.328125 -41.90625 C 10.984375 -41.226562 11.3125 -40.382812 11.3125 -39.375 L 11.3125 -17.921875 L 23.71875 -29.921875 C 24.457031 -30.660156 25.3125 -31.03125 26.28125 -31.03125 C 27.125 -31.03125 27.882812 -30.671875 28.5625 -29.953125 C 29.238281 -29.242188 29.578125 -28.519531 29.578125 -27.78125 C 29.578125 -26.851562 29.113281 -25.984375 28.1875 -25.171875 L 19.4375 -17.109375 Z M 29.578125 -6.09375 "/></g></g></g><g fill="#1d4ed8" fill-opacity="1"><g transform="translate(277.419786, 349.016814)"><g><path d="M 31.609375 -16.234375 C 31.566406 -15.304688 31.195312 -14.550781 30.5 -13.96875 C 29.8125 -13.394531 29.003906 -13.109375 28.078125 -13.109375 L 8.9375 -13.109375 C 9.394531 -10.828125 10.453125 -9.035156 12.109375 -7.734375 C 13.773438 -6.441406 15.65625 -5.796875 17.75 -5.796875 C 19.332031 -5.796875 20.566406 -5.941406 21.453125 -6.234375 C 22.347656 -6.523438 23.054688 -6.832031 23.578125 -7.15625 C 24.097656 -7.488281 24.457031 -7.710938 24.65625 -7.828125 C 25.34375 -8.179688 26 -8.359375 26.625 -8.359375 C 27.4375 -8.359375 28.128906 -8.066406 28.703125 -7.484375 C 29.285156 -6.898438 29.578125 -6.222656 29.578125 -5.453125 C 29.578125 -4.410156 29.035156 -3.460938 27.953125 -2.609375 C 26.867188 -1.722656 25.414062 -0.96875 23.59375 -0.34375 C 21.78125 0.269531 19.945312 0.578125 18.09375 0.578125 C 14.84375 0.578125 12.007812 -0.0976562 9.59375 -1.453125 C 7.175781 -2.804688 5.3125 -4.671875 4 -7.046875 C 2.6875 -9.421875 2.03125 -12.097656 2.03125 -15.078125 C 2.03125 -18.398438 2.722656 -21.316406 4.109375 -23.828125 C 5.503906 -26.347656 7.34375 -28.273438 9.625 -29.609375 C 11.90625 -30.941406 14.34375 -31.609375 16.9375 -31.609375 C 19.488281 -31.609375 21.894531 -30.910156 24.15625 -29.515625 C 26.414062 -28.128906 28.222656 -26.253906 29.578125 -23.890625 C 30.929688 -21.535156 31.609375 -18.984375 31.609375 -16.234375 Z M 16.9375 -25.234375 C 12.445312 -25.234375 9.796875 -23.125 8.984375 -18.90625 L 24.1875 -18.90625 L 24.1875 -19.3125 C 24.03125 -20.9375 23.234375 -22.328125 21.796875 -23.484375 C 20.367188 -24.648438 18.75 -25.234375 16.9375 -25.234375 Z M 16.9375 -25.234375 "/></g></g></g><g fill="#1d4ed8" fill-opacity="1"><g transform="translate(311.05754, 349.016814)"><g><path d="M 19.890625 -31.609375 C 21.054688 -31.609375 22.035156 -31.28125 22.828125 -30.625 C 23.617188 -29.96875 24.015625 -29.191406 24.015625 -28.296875 C 24.015625 -27.097656 23.703125 -26.195312 23.078125 -25.59375 C 22.460938 -25 21.726562 -24.703125 20.875 -24.703125 C 20.300781 -24.703125 19.644531 -24.835938 18.90625 -25.109375 C 18.789062 -25.148438 18.53125 -25.226562 18.125 -25.34375 C 17.71875 -25.457031 17.28125 -25.515625 16.8125 -25.515625 C 15.8125 -25.515625 14.847656 -25.203125 13.921875 -24.578125 C 12.992188 -23.960938 12.226562 -23.023438 11.625 -21.765625 C 11.03125 -20.515625 10.734375 -19.019531 10.734375 -17.28125 L 10.734375 -3.53125 C 10.734375 -2.53125 10.40625 -1.691406 9.75 -1.015625 C 9.09375 -0.335938 8.257812 0 7.25 0 C 6.238281 0 5.40625 -0.335938 4.75 -1.015625 C 4.09375 -1.691406 3.765625 -2.53125 3.765625 -3.53125 L 3.765625 -27.484375 C 3.765625 -28.492188 4.09375 -29.335938 4.75 -30.015625 C 5.40625 -30.691406 6.238281 -31.03125 7.25 -31.03125 C 8.257812 -31.03125 9.09375 -30.691406 9.75 -30.015625 C 10.40625 -29.335938 10.734375 -28.492188 10.734375 -27.484375 L 10.734375 -26.734375 C 11.617188 -28.316406 12.890625 -29.523438 14.546875 -30.359375 C 16.210938 -31.191406 17.992188 -31.609375 19.890625 -31.609375 Z M 19.890625 -31.609375 "/></g></g></g></svg>