<svg xmlns="http://www.w3.org/2000/svg" xmlns:xlink="http://www.w3.org/1999/xlink" width="500" zoomAndPan="magnify" viewBox="0 0 375 374.999991" height="500" preserveAspectRatio="xMidYMid meet" version="1.0"><defs><clipPath id="97a6998b42"><path d="M 53.785156 57.238281 L 321.535156 57.238281 L 321.535156 324.988281 L 53.785156 324.988281 Z M 53.785156 57.238281 " clip-rule="nonzero"/></clipPath></defs><g clip-path="url(#97a6998b42)"><path fill="#ffffff" d="M 315.265625 288.550781 L 228.941406 202.222656 C 238.078125 187.65625 243.441406 170.496094 243.441406 152.066406 C 243.441406 99.777344 200.914062 57.238281 148.613281 57.238281 C 96.3125 57.238281 53.785156 99.777344 53.785156 152.066406 C 53.785156 204.355469 96.324219 246.894531 148.613281 246.894531 C 167.035156 246.894531 184.179688 241.527344 198.75 232.414062 L 285.078125 318.730469 C 289.0625 322.699219 294.550781 324.988281 300.183594 324.988281 C 311.976562 324.988281 321.535156 315.40625 321.535156 303.65625 C 321.535156 298.035156 319.238281 292.535156 315.265625 288.550781 Z M 64.941406 152.066406 C 64.941406 105.925781 102.484375 68.394531 148.613281 68.394531 C 194.746094 68.394531 232.285156 105.925781 232.285156 152.066406 C 232.285156 198.207031 194.757812 235.738281 148.613281 235.738281 C 102.472656 235.738281 64.941406 198.207031 64.941406 152.066406 Z M 300.183594 313.84375 C 297.496094 313.84375 294.875 312.75 292.976562 310.851562 L 208.011719 225.886719 C 213.320312 221.613281 218.152344 216.785156 222.425781 211.472656 L 307.390625 296.429688 C 309.277344 298.335938 310.378906 300.96875 310.378906 303.644531 C 310.378906 309.269531 305.796875 313.84375 300.183594 313.84375 Z M 300.183594 313.84375 " fill-opacity="1" fill-rule="nonzero"/></g><path fill="#ffffff" d="M 99.550781 152.054688 L 119.796875 121.675781 C 121.503906 119.109375 120.800781 115.652344 118.246094 113.945312 C 115.703125 112.261719 112.234375 112.917969 110.503906 115.496094 L 88.191406 148.964844 C 86.941406 150.839844 86.941406 153.28125 88.191406 155.15625 L 110.503906 188.625 C 111.597656 190.242188 113.351562 191.113281 115.144531 191.113281 C 116.21875 191.113281 117.289062 190.8125 118.234375 190.164062 C 120.800781 188.457031 121.492188 185 119.785156 182.433594 Z M 99.550781 152.054688 " fill-opacity="1" fill-rule="nonzero"/><path fill="#ffffff" d="M 161.132812 102.03125 C 158.121094 101.25 155.109375 103.089844 154.371094 106.089844 L 132.058594 195.339844 C 131.3125 198.332031 133.117188 201.355469 136.121094 202.101562 C 136.566406 202.214844 137.023438 202.269531 137.457031 202.269531 C 139.96875 202.269531 142.246094 200.585938 142.871094 198.039062 L 165.183594 108.789062 C 165.929688 105.800781 164.132812 102.777344 161.132812 102.03125 Z M 161.132812 102.03125 " fill-opacity="1" fill-rule="nonzero"/><path fill="#ffffff" d="M 209.046875 148.976562 L 186.734375 115.507812 C 185.015625 112.929688 181.535156 112.261719 179.003906 113.957031 C 176.4375 115.664062 175.746094 119.121094 177.453125 121.6875 L 197.691406 152.066406 L 177.441406 182.445312 C 175.734375 185.011719 176.4375 188.46875 178.992188 190.175781 C 179.941406 190.8125 181.011719 191.113281 182.082031 191.113281 C 183.878906 191.113281 185.640625 190.242188 186.722656 188.636719 L 209.035156 155.167969 C 210.296875 153.292969 210.296875 150.851562 209.046875 148.976562 Z M 209.046875 148.976562 " fill-opacity="1" fill-rule="nonzero"/></svg>